<svg width="580" height="400" xmlns="http://www.w3.org/2000/svg">
 <!-- Created with Method Draw - http://github.com/duopixel/Method-Draw/ -->

 <g>
  <title>background</title>
  <rect fill="#fff" id="canvas_background" height="402" width="582" y="-1" x="-1"/>
  <g display="none" overflow="visible" y="0" x="0" height="100%" width="100%" id="canvasGrid">
   <rect fill="url(#gridpattern)" stroke-width="0" y="0" x="0" height="100%" width="100%"/>
  </g>
 </g>
 <g>
  <title>Layer 1</title>
  <path stroke="#000" id="svg_2" d="m303.300847,100.634994c-0.030292,-19.107408 -13.57072,-34.588908 -30.284213,-34.61487l0,-0.008654l-92.821605,0c-3.824338,-14.03633 -15.229195,-24.299638 -28.815061,-24.3256l-21.772221,0c-16.721066,0.017307 -30.269067,15.507462 -30.299359,34.61487l0,122.778942c0.030292,19.090101 13.578293,34.571601 30.299359,34.606216l143.41646,0c16.698347,-0.034615 30.253921,-15.516115 30.284213,-34.606216l0,-98.444689l-0.007573,0zm-173.693101,-41.650342l21.772221,0c7.921302,-0.034615 14.517338,7.2172 15.017153,16.234374l0.439231,8.108533l106.187856,0c8.277231,0.017307 15.123174,7.840268 15.13832,17.307435l0,4.28359c-4.475611,-2.985533 -9.602496,-4.820121 -15.145893,-4.828774l-143.41646,0c-5.543397,0.008654 -10.677855,1.851896 -15.145893,4.837428l0,-28.635151c0.022719,-9.467167 6.868662,-17.290127 15.153466,-17.307435zm143.408888,157.393812l-143.408888,0c-8.277231,-0.017307 -15.123174,-7.857575 -15.153466,-17.307435l0,-64.36635l0.007573,0c0.015146,-9.475821 6.86109,-17.298781 15.145893,-17.316089l143.41646,0c8.277231,0.017307 15.077736,7.796999 15.145893,17.229551l0,64.444233c-0.030292,9.475821 -6.876235,17.298781 -15.153466,17.316089z" stroke-width="1.5" fill="#fff"/>
  <text font-weight="bold" stroke="#000" transform="matrix(3.790272639583329,0,0,2.8247338307439125,-475.1324605171796,-257.82690456295137) " xml:space="preserve" text-anchor="start" font-family="'Times New Roman', Times, serif" font-size="29" id="svg_3" y="159.4375" x="158.5" fill-opacity="null" stroke-opacity="null" stroke-width="2" fill="#000000">GF</text>
 </g>
</svg>