<svg width="51" height="54" xmlns="http://www.w3.org/2000/svg">
 <!-- Created with Method Draw - http://github.com/duopixel/Method-Draw/ -->

 <g>
  <title>background</title>
  <rect x="-1" y="-1" width="53" height="56" id="canvas_background" fill="none"/>
  <g id="canvasGrid" display="none">
   <rect id="svg_1" width="100%" height="100%" x="0" y="0" stroke-width="0" fill="url(#gridpattern)"/>
  </g>
 </g>
 <g>
  <title>Layer 1</title>
  <path stroke="#000" fill="#fff" stroke-width="1.5" d="m48.306708,18.116128c-0.00683,-4.677335 -3.060066,-8.467079 -6.828798,-8.473436l0,-0.002117l-20.930372,0c-0.862352,-3.435978 -3.434037,-5.948353 -6.497517,-5.954707l-4.909425,0c-3.770439,0.004237 -6.825382,3.796099 -6.832212,8.473436l0,30.055277c0.00683,4.6731 3.061773,8.462844 6.832212,8.471319l32.339023,0c3.765314,-0.008475 6.821966,-3.798219 6.828796,-8.471319l0,-24.098453l-0.001707,0zm-39.166112,-10.195662l4.909425,0c1.786176,-0.008472 3.273517,1.766711 3.386222,3.974043l0.099042,1.984902l23.944334,0c1.866435,0.004237 3.410128,1.919234 3.413545,4.236717l0,1.048588c-1.009207,-0.730833 -2.165271,-1.179926 -3.415254,-1.182043l-32.339023,0c-1.249981,0.002117 -2.407752,0.45333 -3.415252,1.184163l0,-7.00965c0.005123,-2.317486 1.548816,-4.232482 3.416961,-4.236719zm32.337314,38.528714l-32.337314,0c-1.866437,-0.004235 -3.410131,-1.923469 -3.416961,-4.236717l0,-15.756354l0.001707,0c0.003416,-2.319603 1.547109,-4.234599 3.415254,-4.238837l32.339023,0c1.866435,0.004237 3.399882,1.908642 3.415252,4.217653l0,15.775419c-0.00683,2.319603 -1.550526,4.234599 -3.416961,4.238837z" id="svg_2"/>
  <text fill="#000000" stroke-width="2" stroke-opacity="null" fill-opacity="null" x="1.455726" y="42.578135" id="svg_3" font-size="29" font-family="'Times New Roman', Times, serif" text-anchor="start" xml:space="preserve" transform="matrix(0.8942239255695742,0,0,0.8798253231733902,5.624168806459354,5.127350279259335) " stroke="#000" font-weight="bold">GF</text>
 </g>
</svg>